#!OML:ASF H:\MichaelJackson\Top Level 1\Subject 1\Session 1\male.ASF
:FULLY-SPECIFIED
:DEGREES
1872
root -8.38928 16.0655 33.7179 -355.332 -24.2728 -0.439413
lowerback -2.62952 -2.0087 2.13519
upperback -1.94597 -2.73534 -2.03674
thorax -0.724598 -1.41063 -3.33793
lowerneck -5.35966 -1.37588 2.21572
upperneck -1.69748 -1.98899 3.55866
head 0.3764 -0.98424 0.683781
rclavicle 1.15792e-014 -5.56597e-015
rhumerus -166.901 202.8 -181.267
rradius 33.743
rwrist -14.6196
rhand -39.9632 -51.6313
rfingers 7.12502
rthumb -12.9323 -441.211
lclavicle 1.15792e-014 -5.56597e-015
lhumerus -53.014 -33.6662 113.65
lradius 52.8106
lwrist 17.594
lhand 29.9193 27.5771
lfingers 7.12502
lthumb 53.6344 46.6594
rfemur -24.7512 -0.261275 -0.484712
rtibia 34.341
rfoot -10.2071 -7.4452
rtoes -40.2498
lfemur 1.82949 -13.7305 -0.451382
ltibia 17.6441
lfoot -25.7429 0.431274
ltoes -16.7953
1873
root -8.38746 16.0656 33.7161 -355.335 -24.2962 -0.39917
lowerback -2.62042 -2.01205 2.09943
upperback -1.94401 -2.73906 -2.04579
thorax -0.72667 -1.41219 -3.32689
lowerneck -5.37995 -1.36678 2.21312
upperneck -1.71351 -1.97703 3.56638
head 0.374865 -0.978386 0.686729
rclavicle 5.17958e-014 -1.59028e-015
rhumerus -166.928 202.7 -181.256
rradius 33.7689
rwrist -14.6707
rhand -39.9923 -51.6351
rfingers 7.12502
rthumb -12.9604 -441.213
lclavicle 5.17958e-014 -1.59028e-015
lhumerus -52.9935 -33.6524 113.635
lradius 52.8001
lwrist 17.5251
lhand 29.966 27.5913
lfingers 7.12502
lthumb 53.6764 46.6458
rfemur -24.7893 -0.261429 -0.53036
rtibia 34.3456
rfoot -10.2094 -7.41733
rtoes -40.2235
lfemur 1.82059 -13.7394 -0.498197
ltibia 17.6394
lfoot -25.7396 0.45758
ltoes -16.788
1874
root -8.38579 16.0652 33.7142 -355.334 -24.3171 -0.358367
lowerback -2.61113 -2.01764 2.05839
upperback -1.94559 -2.7457 -2.05211
thorax -0.73229 -1.41524 -3.31003
lowerneck -5.40451 -1.35843 2.20996
upperneck -1.71853 -1.96656 3.56919
head 0.377388 -0.973016 0.688179
rclavicle -3.59676e-014 -1.19271e-014
rhumerus -166.928 202.646 -181.274
rradius 33.775
rwrist -14.6713
rhand -39.9997 -51.633
rfingers 7.12502
rthumb -12.9674 -441.21
lclavicle -3.59676e-014 -1.19271e-014
lhumerus -52.986 -33.6343 113.631
lradius 52.7927
lwrist 17.45
lhand 29.9841 27.5945
lfingers 7.12502
lthumb 53.6927 46.6382
rfemur -24.8349 -0.264153 -0.575061
rtibia 34.3583
rfoot -10.2041 -7.40029
rtoes -40.2251
lfemur 1.80272 -13.7298 -0.537891
ltibia 17.635
lfoot -25.7389 0.457911
ltoes -16.7598
1875
root -8.38425 16.0648 33.7122 -355.329 -24.3325 -0.317646
lowerback -2.60161 -2.02538 2.01514
upperback -1.94962 -2.75519 -2.05632
thorax -0.740532 -1.41974 -3.28971
lowerneck -5.42814 -1.35119 2.20433
upperneck -1.71906 -1.9575 3.57001
head 0.381154 -0.96826 0.689391
rclavicle -4.2981e-014 1.59028e-014
rhumerus -166.927 202.601 -181.293
rradius 33.7875
rwrist -14.6628
rhand -40.0176 -51.674
rfingers 7.12502
rthumb -12.9848 -441.25
lclavicle -4.2981e-014 1.59028e-014
lhumerus -52.9937 -33.6165 113.64
lradius 52.7896
lwrist 17.3702
lhand 29.9758 27.5839
lfingers 7.12502
lthumb 53.6852 46.6326
rfemur -24.8822 -0.268611 -0.618996
rtibia 34.3753
rfoot -10.1937 -7.39252
rtoes -40.2369
lfemur 1.77813 -13.7064 -0.570871
ltibia 17.6294
lfoot -25.7398 0.430991
ltoes -16.7059
1876
root -8.38282 16.0642 33.7103 -355.32 -24.3419 -0.284539
lowerback -2.59344 -2.03401 1.9786
upperback -1.95339 -2.76601 -2.05781
thorax -0.74803 -1.42493 -3.27044
lowerneck -5.45078 -1.34629 2.20092
upperneck -1.71925 -1.95161 3.56387
head 0.384765 -0.96515 0.688046
rclavicle 5.51938e-014 -9.54166e-015
rhumerus -166.923 202.585 -181.323
rradius 33.7982
rwrist -14.6288
rhand -40.0128 -51.6733
rfingers 7.12502
rthumb -12.9802 -441.25
lclavicle 5.51938e-014 -9.54166e-015
lhumerus -53.0124 -33.6073 113.661
lradius 52.7903
lwrist 17.2939
lhand 29.9413 27.5538
lfingers 7.12502
lthumb 53.6541 46.623
rfemur -24.9267 -0.273238 -0.654256
rtibia 34.3926
rfoot -10.1773 -7.39683
rtoes -40.2661
lfemur 1.74947 -13.6743 -0.590995
ltibia 17.6224
lfoot -25.742 0.38378
ltoes -16.6317
1877
root -8.38149 16.0638 33.7084 -355.307 -24.3443 -0.258435
lowerback -2.5868 -2.04404 1.9491
upperback -1.95704 -2.77881 -2.05682
thorax -0.754913 -1.43116 -3.25265
lowerneck -5.46413 -1.34317 2.19549
upperneck -1.72894 -1.9473 3.55724
head 0.38393 -0.963115 0.686936
rclavicle 4.88141e-014 1.11319e-014
rhumerus -166.919 202.587 -181.356
rradius 33.8133
rwrist -14.5869
rhand -39.9936 -51.6218
rfingers 7.12502
rthumb -12.9616 -441.199
lclavicle 4.88141e-014 1.11319e-014
lhumerus -53.0369 -33.6032 113.689
lradius 52.7921
lwrist 17.2238
lhand 29.8903 27.5102
lfingers 7.12502
lthumb 53.6083 46.6096
rfemur -24.9667 -0.275315 -0.682881
rtibia 34.4052
rfoot -10.1547 -7.40976
rtoes -40.2966
lfemur 1.71685 -13.6384 -0.600189
ltibia 17.6131
lfoot -25.7426 0.32265
ltoes -16.5408
